<svg xmlns="http://www.w3.org/2000/svg" viewBox="7.5 8.0 32 32" fill="#21201c"><path d="M 16 9 h 2 v 1 h 1 v 1h -1 v 1h -1 v 2 h -2 v -1h -1 v -2 h 1 v -1 h 1 v -1"/><path fill="#fff" d="M 22 9 h 4 v 1 h 2 v 1 h 1 v 2 h 1 v 1 h 1 v 3 h 1 v 2h -1 v 1h -1 v 1 h -2 v 1h -10 v -1 h -2 v -1h -1 v -1h -1 v -2 h 1 v -2 h 1 v -1 h 1 v -2 h 1 v -1 h 1 v -1 h 3 v -1"/><path d="M 28 9 h 2 v 1 h 1 v 1 h 1 v 2h -1 v 1h -1 v -1h -1 v -2h -1 v -2"/><path d="M 19 15 h 2 v 2h -1 v 1 h -2 v -2 h 1 v -1"/><path d="M 26 15 h 2 v 1 h 1 v 1h -1 v 1 h -2 v -3"/><path d="M 23 18 h 2 v 1 h -2 v -1"/><path d="M 30 20 h 1 v 1 h 1 v 1 h 1 v 1 h 1 v 5h -1 v 1 h -2 v -3h -1 v -1 h -2 v -1 h -6 v 1 h -2 v 1h -1 v 2h -1 v 3 h 1 v 1 h 1 v 1 h 1 v 4h -1 v 1h -1 v 1 h -3 v -1h -1 v -1h -1 v -6h -1 v -6 h 1 v -2 h 1 v -2 h 3 v 1 h 10 v -1 h 2 v -1"/><path fill="#fff" d="M 22 24 h 6 v 1 h 2 v 1 h 1 v 3 h 1 v 1 h -2 v 1 h -2 v 2h -1 v 1h -1 v 1 h -5 v -2h -1 v -1h -1 v -1h -1 v -3 h 1 v -2 h 1 v -1 h 2 v -1"/><path d="M 30 30 h 2 v 5h -1 v 1h -1 v 1 h -3 v -1h -1 v -2 h 1 v -1 h 1 v -2 h 2 v -1"/></svg>